<svg xmlns="http://www.w3.org/2000/svg" xmlns:xlink="http://www.w3.org/1999/xlink" width="524" zoomAndPan="magnify" viewBox="0 0 392.88 133.500001" height="178" preserveAspectRatio="xMidYMid meet" version="1.0"><defs><g/><clipPath id="13608a80cf"><path d="M 0.671875 27.601562 L 129.191406 27.601562 L 129.191406 103 L 0.671875 103 Z M 0.671875 27.601562 " clip-rule="nonzero"/></clipPath><clipPath id="7db9be39e4"><path d="M 0.671875 63.46875 L 0.671875 68.960938 C 0.671875 88.769531 16.730469 104.828125 36.539062 104.828125 L 93.335938 104.828125 C 113.144531 104.828125 129.203125 88.769531 129.203125 68.960938 L 129.203125 63.46875 C 129.203125 43.660156 113.144531 27.601562 93.335938 27.601562 L 36.539062 27.601562 C 16.730469 27.601562 0.671875 43.660156 0.671875 63.46875 Z M 0.671875 63.46875 " clip-rule="nonzero"/></clipPath></defs><g fill="#ffffff" fill-opacity="1"><g transform="translate(138.356856, 89.652257)"><g><path d="M 1.53125 0 C 1 -1.46875 0.9375 -3.070312 1.34375 -4.8125 C 1.757812 -6.550781 2.507812 -8.367188 3.59375 -10.265625 C 4.675781 -12.171875 5.953125 -14.070312 7.421875 -15.96875 C 8.890625 -17.875 10.390625 -19.71875 11.921875 -21.5 C 13.460938 -23.28125 14.914062 -24.9375 16.28125 -26.46875 C 17.65625 -28 18.78125 -29.328125 19.65625 -30.453125 C 20.539062 -31.578125 21.019531 -32.425781 21.09375 -33 C 21.09375 -33.695312 20.785156 -34.390625 20.171875 -35.078125 C 19.566406 -35.773438 18.757812 -36.359375 17.75 -36.828125 C 16.75 -37.304688 15.65625 -37.546875 14.46875 -37.546875 C 13 -37.546875 12.097656 -37.28125 11.765625 -36.75 C 11.441406 -36.21875 11.472656 -35.625 11.859375 -34.96875 C 12.253906 -34.3125 12.738281 -33.738281 13.3125 -33.25 C 14.65625 -32.144531 15.285156 -31 15.203125 -29.8125 C 15.128906 -28.625 14.53125 -27.660156 13.40625 -26.921875 C 12.28125 -26.191406 10.773438 -25.925781 8.890625 -26.125 C 6.273438 -26.457031 4.34375 -27.335938 3.09375 -28.765625 C 1.851562 -30.203125 1.351562 -31.695312 1.59375 -33.25 C 1.914062 -35.207031 2.957031 -36.71875 4.71875 -37.78125 C 6.476562 -38.84375 8.726562 -39.375 11.46875 -39.375 C 12.488281 -39.375 13.601562 -39.257812 14.8125 -39.03125 C 16.019531 -38.8125 17.507812 -38.597656 19.28125 -38.390625 C 21.0625 -38.191406 23.320312 -38.09375 26.0625 -38.09375 L 34.109375 -38.09375 C 32.347656 -36.050781 30.40625 -33.664062 28.28125 -30.9375 C 26.15625 -28.21875 24.066406 -25.335938 22.015625 -22.296875 C 19.972656 -19.253906 18.144531 -16.175781 16.53125 -13.0625 C 14.914062 -9.957031 13.71875 -6.992188 12.9375 -4.171875 C 13.1875 -3.515625 13.757812 -2.960938 14.65625 -2.515625 C 15.5625 -2.066406 16.578125 -1.726562 17.703125 -1.5 C 18.828125 -1.28125 19.859375 -1.171875 20.796875 -1.171875 C 21.859375 -1.171875 22.59375 -1.289062 23 -1.53125 C 24.101562 -2.226562 24.726562 -3.25 24.875 -4.59375 C 25.019531 -5.945312 24.796875 -7.328125 24.203125 -8.734375 C 23.609375 -10.148438 22.71875 -11.285156 21.53125 -12.140625 C 23.082031 -13.367188 24.570312 -14.257812 26 -14.8125 C 27.4375 -15.363281 28.726562 -15.640625 29.875 -15.640625 C 31.550781 -15.640625 32.859375 -15.148438 33.796875 -14.171875 C 34.734375 -13.191406 35.117188 -11.882812 34.953125 -10.25 C 34.796875 -8.613281 33.921875 -6.8125 32.328125 -4.84375 C 31.140625 -3.375 29.519531 -2.226562 27.46875 -1.40625 C 25.425781 -0.59375 23.164062 -0.0234375 20.6875 0.296875 C 18.21875 0.628906 15.71875 0.796875 13.1875 0.796875 C 11.0625 0.796875 8.992188 0.710938 6.984375 0.546875 C 4.984375 0.390625 3.164062 0.207031 1.53125 0 Z M 1.53125 0 "/></g></g></g><g fill="#ffffff" fill-opacity="1"><g transform="translate(173.54322, 89.652257)"><g><path d="M 2.078125 0 C 2.984375 -3.757812 3.660156 -7.160156 4.109375 -10.203125 C 4.554688 -13.253906 4.78125 -16.203125 4.78125 -19.046875 C 4.78125 -21.890625 4.554688 -24.832031 4.109375 -27.875 C 3.660156 -30.925781 2.984375 -34.332031 2.078125 -38.09375 L 18.21875 -38.09375 C 17.320312 -34.332031 16.632812 -30.925781 16.15625 -27.875 C 15.6875 -24.832031 15.453125 -21.890625 15.453125 -19.046875 C 15.453125 -16.203125 15.6875 -13.253906 16.15625 -10.203125 C 16.632812 -7.160156 17.320312 -3.757812 18.21875 0 Z M 10.359375 -43.984375 C 8.078125 -43.734375 6.238281 -43.957031 4.84375 -44.65625 C 3.457031 -45.351562 2.523438 -46.3125 2.046875 -47.53125 C 1.578125 -48.757812 1.566406 -50.035156 2.015625 -51.359375 C 2.472656 -52.691406 3.394531 -53.867188 4.78125 -54.890625 C 6.175781 -55.921875 8.035156 -56.578125 10.359375 -56.859375 C 12.648438 -57.109375 14.488281 -56.875 15.875 -56.15625 C 17.269531 -55.4375 18.191406 -54.460938 18.640625 -53.234375 C 19.097656 -52.015625 19.097656 -50.738281 18.640625 -49.40625 C 18.191406 -48.082031 17.269531 -46.90625 15.875 -45.875 C 14.488281 -44.851562 12.648438 -44.222656 10.359375 -43.984375 Z M 10.359375 -43.984375 "/></g></g></g><g fill="#ffffff" fill-opacity="1"><g transform="translate(193.272156, 89.652257)"><g><path d="M 1.71875 -38.09375 L 17.84375 -38.09375 C 17.070312 -34.988281 16.457031 -32.125 16 -29.5 C 15.550781 -26.882812 15.265625 -24.378906 15.140625 -21.984375 C 15.023438 -19.597656 15.050781 -17.175781 15.21875 -14.71875 C 15.414062 -18.894531 16.046875 -22.523438 17.109375 -25.609375 C 18.171875 -28.691406 19.5 -31.242188 21.09375 -33.265625 C 22.695312 -35.296875 24.40625 -36.8125 26.21875 -37.8125 C 28.039062 -38.8125 29.8125 -39.3125 31.53125 -39.3125 C 33.164062 -39.3125 34.625 -38.875 35.90625 -38 C 37.195312 -37.125 38.148438 -35.828125 38.765625 -34.109375 C 39.421875 -32.304688 39.675781 -30.484375 39.53125 -28.640625 C 39.382812 -26.804688 39.117188 -24.882812 38.734375 -22.875 C 38.347656 -20.875 38.070312 -18.71875 37.90625 -16.40625 C 37.738281 -14.09375 37.921875 -11.585938 38.453125 -8.890625 C 38.992188 -6.191406 40.117188 -3.226562 41.828125 0 L 25.703125 0 C 25.171875 -1.757812 24.972656 -3.710938 25.109375 -5.859375 C 25.253906 -8.003906 25.582031 -10.242188 26.09375 -12.578125 C 26.601562 -14.910156 27.132812 -17.21875 27.6875 -19.5 C 28.238281 -21.789062 28.664062 -23.976562 28.96875 -26.0625 C 29.28125 -28.15625 29.316406 -30.019531 29.078125 -31.65625 C 28.910156 -32.675781 28.601562 -33.429688 28.15625 -33.921875 C 27.707031 -34.410156 27.175781 -34.65625 26.5625 -34.65625 C 25.457031 -34.65625 24.226562 -33.898438 22.875 -32.390625 C 21.53125 -30.878906 20.304688 -28.648438 19.203125 -25.703125 C 18.097656 -22.753906 17.367188 -19.132812 17.015625 -14.84375 C 16.671875 -10.550781 16.945312 -5.601562 17.84375 0 L 1.71875 0 C 2.613281 -3.757812 3.285156 -7.160156 3.734375 -10.203125 C 4.191406 -13.253906 4.421875 -16.203125 4.421875 -19.046875 C 4.421875 -21.890625 4.191406 -24.832031 3.734375 -27.875 C 3.285156 -30.925781 2.613281 -34.332031 1.71875 -38.09375 Z M 1.71875 -38.09375 "/></g></g></g><g fill="#ffffff" fill-opacity="1"><g transform="translate(235.267146, 89.652257)"><g><path d="M 23.3125 -6.375 C 21.800781 -3.800781 19.867188 -1.867188 17.515625 -0.578125 C 15.160156 0.703125 12.878906 1.34375 10.671875 1.34375 C 8.753906 1.34375 7.046875 0.863281 5.546875 -0.09375 C 4.054688 -1.050781 3.046875 -2.488281 2.515625 -4.40625 C 1.984375 -6.332031 2.1875 -8.726562 3.125 -11.59375 C 4.070312 -14.5 4.707031 -17.238281 5.03125 -19.8125 C 5.351562 -22.382812 5.472656 -24.859375 5.390625 -27.234375 C 5.273438 -30.378906 4.691406 -32.585938 3.640625 -33.859375 C 2.597656 -35.128906 1.203125 -35.925781 -0.546875 -36.25 L -0.125 -38.09375 C 0.695312 -38.09375 1.757812 -38.171875 3.0625 -38.328125 C 4.375 -38.492188 5.773438 -38.8125 7.265625 -39.28125 C 8.753906 -39.757812 10.222656 -40.4375 11.671875 -41.3125 C 13.128906 -42.1875 14.429688 -43.328125 15.578125 -44.734375 C 16.722656 -46.148438 17.582031 -47.882812 18.15625 -49.9375 L 20 -49.9375 C 19.507812 -47.925781 19.085938 -45.925781 18.734375 -43.9375 C 18.390625 -41.957031 18.113281 -40.007812 17.90625 -38.09375 L 23.796875 -38.09375 L 24.109375 -36.25 L 17.734375 -36.25 C 17.441406 -33.019531 17.335938 -29.820312 17.421875 -26.65625 C 17.503906 -23.488281 17.769531 -20.347656 18.21875 -17.234375 C 17.15625 -17.066406 15.882812 -16.65625 14.40625 -16 C 12.9375 -15.351562 11.484375 -14.535156 10.046875 -13.546875 C 8.617188 -12.566406 7.40625 -11.472656 6.40625 -10.265625 C 5.40625 -9.066406 4.832031 -7.8125 4.6875 -6.5 C 4.550781 -5.195312 5.035156 -3.890625 6.140625 -2.578125 C 6.710938 -1.921875 7.382812 -1.394531 8.15625 -1 C 8.9375 -0.613281 9.710938 -0.421875 10.484375 -0.421875 C 11.265625 -0.421875 11.960938 -0.609375 12.578125 -0.984375 C 13.679688 -1.679688 14.289062 -2.703125 14.40625 -4.046875 C 14.53125 -5.398438 14.296875 -6.78125 13.703125 -8.1875 C 13.109375 -9.601562 12.242188 -10.738281 11.109375 -11.59375 C 12.703125 -12.863281 14.191406 -13.773438 15.578125 -14.328125 C 16.972656 -14.878906 18.242188 -15.15625 19.390625 -15.15625 C 20.898438 -15.15625 22.101562 -14.734375 23 -13.890625 C 23.90625 -13.054688 24.40625 -11.972656 24.5 -10.640625 C 24.601562 -9.316406 24.207031 -7.894531 23.3125 -6.375 Z M 23.3125 -6.375 "/></g></g></g><g fill="#ffffff" fill-opacity="1"><g transform="translate(259.841866, 89.652257)"><g><path d="M 1.71875 0 C 2.457031 -2.988281 3.039062 -6.3125 3.46875 -9.96875 C 3.894531 -13.625 4.179688 -17.425781 4.328125 -21.375 C 4.472656 -25.320312 4.472656 -29.269531 4.328125 -33.21875 C 4.179688 -37.164062 3.894531 -40.96875 3.46875 -44.625 C 3.039062 -48.28125 2.457031 -51.601562 1.71875 -54.59375 L 17.84375 -54.59375 C 17.113281 -51.601562 16.519531 -48.28125 16.0625 -44.625 C 15.613281 -40.96875 15.316406 -37.164062 15.171875 -33.21875 C 15.035156 -29.269531 15.035156 -25.320312 15.171875 -21.375 C 15.316406 -17.425781 15.613281 -13.632812 16.0625 -10 C 16.519531 -6.363281 17.113281 -3.03125 17.84375 0 Z M 1.71875 0 "/></g></g></g><g fill="#ffffff" fill-opacity="1"><g transform="translate(278.405364, 89.652257)"><g><path d="M 1.234375 -17.78125 C 1.234375 -20.8125 1.734375 -23.625 2.734375 -26.21875 C 3.734375 -28.820312 5.140625 -31.101562 6.953125 -33.0625 C 8.773438 -35.019531 10.921875 -36.550781 13.390625 -37.65625 C 15.867188 -38.757812 18.582031 -39.3125 21.53125 -39.3125 C 23 -39.3125 24.519531 -39.140625 26.09375 -38.796875 C 27.675781 -38.453125 29.128906 -37.910156 30.453125 -37.171875 C 31.785156 -36.429688 32.878906 -35.457031 33.734375 -34.25 C 34.597656 -33.050781 35.066406 -31.570312 35.140625 -29.8125 C 35.222656 -27.8125 34.765625 -25.984375 33.765625 -24.328125 C 32.765625 -22.671875 31.40625 -21.207031 29.6875 -19.9375 C 27.96875 -18.664062 26.097656 -17.597656 24.078125 -16.734375 C 22.054688 -15.878906 20.050781 -15.238281 18.0625 -14.8125 C 16.082031 -14.382812 14.316406 -14.171875 12.765625 -14.171875 C 12.878906 -11.921875 13.332031 -9.753906 14.125 -7.671875 C 14.925781 -5.585938 16.039062 -3.890625 17.46875 -2.578125 C 18.90625 -1.265625 20.648438 -0.671875 22.703125 -0.796875 C 23.804688 -0.878906 24.519531 -1.335938 24.84375 -2.171875 C 25.164062 -3.015625 25.191406 -4.035156 24.921875 -5.234375 C 24.660156 -6.441406 24.191406 -7.617188 23.515625 -8.765625 C 22.847656 -9.910156 22.082031 -10.789062 21.21875 -11.40625 C 22.8125 -12.675781 24.300781 -13.585938 25.6875 -14.140625 C 27.082031 -14.691406 28.351562 -14.96875 29.5 -14.96875 C 31.019531 -14.96875 32.226562 -14.554688 33.125 -13.734375 C 34.019531 -12.921875 34.53125 -11.847656 34.65625 -10.515625 C 34.78125 -9.191406 34.390625 -7.753906 33.484375 -6.203125 C 32.097656 -3.867188 30.207031 -2.046875 27.8125 -0.734375 C 25.425781 0.578125 22.90625 1.234375 20.25 1.234375 C 17.257812 1.234375 14.585938 0.722656 12.234375 -0.296875 C 9.878906 -1.328125 7.882812 -2.726562 6.25 -4.5 C 4.613281 -6.28125 3.367188 -8.316406 2.515625 -10.609375 C 1.660156 -12.898438 1.234375 -15.289062 1.234375 -17.78125 Z M 13.796875 -26.125 C 13.515625 -24.976562 13.257812 -23.492188 13.03125 -21.671875 C 12.8125 -19.859375 12.703125 -17.953125 12.703125 -15.953125 C 14.703125 -16.066406 16.507812 -16.757812 18.125 -18.03125 C 19.738281 -19.300781 21.097656 -20.875 22.203125 -22.75 C 23.304688 -24.632812 24.0625 -26.539062 24.46875 -28.46875 C 25.164062 -31.613281 25.257812 -33.910156 24.75 -35.359375 C 24.238281 -36.816406 23.453125 -37.546875 22.390625 -37.546875 C 21.492188 -37.546875 20.5 -37.082031 19.40625 -36.15625 C 18.320312 -35.238281 17.28125 -33.929688 16.28125 -32.234375 C 15.28125 -30.535156 14.453125 -28.5 13.796875 -26.125 Z M 13.796875 -26.125 "/></g></g></g><g clip-path="url(#13608a80cf)"><g clip-path="url(#7db9be39e4)"><path fill="#ffffff" d="M 0.691406 57.632812 C 2.914062 57.183594 5.136719 56.730469 7.363281 56.308594 C 10.25 55.753906 12.898438 54.613281 15.519531 53.34375 C 19.757812 51.304688 24.152344 50.5625 28.707031 52.152344 C 32.679688 53.527344 35.484375 56.359375 37.628906 59.855469 C 38.558594 61.367188 39.324219 62.953125 40.121094 64.515625 C 43.535156 71.347656 49.253906 74.792969 56.644531 75.71875 C 62.074219 76.40625 67.476562 75.640625 72.875 75.347656 C 80.609375 74.898438 88.339844 74.183594 96.074219 73.335938 C 103.117188 72.566406 110.136719 71.585938 117.179688 70.582031 C 121.179688 70.023438 125.125 69.203125 129.175781 68.964844 C 123.457031 70.394531 117.789062 71.984375 112.226562 73.917969 C 101.527344 77.625 91.757812 83.054688 82.621094 89.726562 C 78.914062 92.429688 75.285156 95.234375 71.339844 97.59375 C 59.238281 104.820312 47.242188 104.105469 35.589844 96.71875 C 28.203125 92.03125 24.019531 84.828125 21.292969 76.671875 C 20.789062 75.164062 20.363281 73.652344 19.96875 72.117188 C 18.113281 65.046875 13.292969 61.046875 6.515625 59.089844 C 4.609375 58.53125 2.648438 58.242188 0.714844 57.84375 C 0.714844 57.765625 0.691406 57.710938 0.691406 57.632812 Z M 19.996094 59.910156 C 19.4375 60.015625 18.910156 60.226562 18.960938 60.890625 C 18.988281 61.417969 19.199219 61.949219 19.886719 61.976562 C 20.578125 61.976562 20.972656 61.628906 21 60.941406 C 21 60.308594 20.578125 60.015625 19.996094 59.910156 Z M 119.640625 27.628906 C 112.546875 28.660156 105.554688 30.304688 98.667969 32.316406 C 83.628906 36.738281 69.328125 42.804688 56.273438 51.566406 C 53.203125 53.632812 50.15625 55.777344 47.695312 58.585938 C 45.152344 61.445312 45.363281 64.464844 47.90625 67.324219 C 50.84375 70.582031 58.816406 72.0625 63.265625 67.984375 C 64.507812 66.847656 65.675781 65.65625 66.785156 64.410156 C 71.632812 58.851562 76.742188 53.554688 82.304688 48.707031 C 90.859375 41.242188 100.207031 35.042969 110.796875 30.832031 C 113.871094 29.589844 117.019531 28.660156 120.171875 27.601562 C 119.988281 27.601562 119.828125 27.601562 119.640625 27.628906 Z M 119.640625 27.628906 " fill-opacity="1" fill-rule="nonzero"/></g></g></svg>