<svg xmlns="http://www.w3.org/2000/svg" xmlns:xlink="http://www.w3.org/1999/xlink" width="500" zoomAndPan="magnify" viewBox="0 0 375 374.999991" height="500" preserveAspectRatio="xMidYMid meet" version="1.0"><defs><clipPath id="ccdf8f67a9"><path d="M 70.925781 117.457031 L 304.175781 117.457031 L 304.175781 254 L 70.925781 254 Z M 70.925781 117.457031 " clip-rule="nonzero"/></clipPath><clipPath id="8e145baf6c"><path d="M 70.925781 154.957031 L 70.925781 220.042969 C 70.925781 240.753906 87.714844 257.542969 108.425781 257.542969 L 266.574219 257.542969 C 287.285156 257.542969 304.074219 240.753906 304.074219 220.042969 L 304.074219 154.957031 C 304.074219 145.011719 300.121094 135.476562 293.089844 128.441406 C 286.058594 121.410156 276.519531 117.457031 266.574219 117.457031 L 108.425781 117.457031 C 87.714844 117.457031 70.925781 134.246094 70.925781 154.957031 Z M 70.925781 154.957031 " clip-rule="nonzero"/></clipPath></defs><g clip-path="url(#ccdf8f67a9)"><g clip-path="url(#8e145baf6c)"><path fill="#ffffff" d="M 70.960938 171.933594 C 74.996094 171.113281 79.03125 170.296875 83.066406 169.53125 C 88.304688 168.519531 93.105469 166.457031 97.863281 164.148438 C 105.546875 160.449219 113.523438 159.105469 121.785156 161.988281 C 128.988281 164.484375 134.082031 169.625 137.972656 175.96875 C 139.652344 178.703125 141.046875 181.585938 142.488281 184.421875 C 148.683594 196.816406 159.0625 203.058594 172.464844 204.742188 C 182.308594 205.988281 192.109375 204.597656 201.910156 204.066406 C 215.9375 203.25 229.960938 201.953125 243.988281 200.417969 C 256.765625 199.023438 269.496094 197.246094 282.273438 195.421875 C 289.527344 194.414062 296.683594 192.921875 304.035156 192.492188 C 293.660156 195.085938 283.378906 197.96875 273.292969 201.472656 C 253.882812 208.199219 236.160156 218.046875 219.585938 230.152344 C 212.863281 235.050781 206.28125 240.144531 199.125 244.417969 C 177.171875 257.53125 155.410156 256.234375 134.273438 242.832031 C 120.871094 234.332031 113.28125 221.265625 108.335938 206.46875 C 107.421875 203.730469 106.652344 200.992188 105.933594 198.207031 C 102.570312 185.382812 93.828125 178.128906 81.53125 174.574219 C 78.070312 173.566406 74.515625 173.035156 71.011719 172.316406 C 71.011719 172.171875 70.960938 172.074219 70.960938 171.933594 Z M 105.980469 176.0625 C 104.972656 176.253906 104.011719 176.640625 104.105469 177.839844 C 104.15625 178.800781 104.539062 179.761719 105.789062 179.808594 C 107.039062 179.808594 107.757812 179.183594 107.804688 177.9375 C 107.804688 176.785156 107.039062 176.253906 105.980469 176.0625 Z M 286.742188 117.507812 C 273.867188 119.378906 261.1875 122.359375 248.695312 126.007812 C 221.410156 134.03125 195.472656 145.03125 171.789062 160.929688 C 166.21875 164.679688 160.695312 168.570312 156.226562 173.660156 C 151.613281 178.847656 152 184.324219 156.609375 189.511719 C 161.941406 195.421875 176.402344 198.113281 184.472656 190.714844 C 186.730469 188.648438 188.84375 186.488281 190.859375 184.230469 C 199.652344 174.140625 208.921875 164.535156 219.011719 155.742188 C 234.527344 142.195312 251.484375 130.957031 270.699219 123.320312 C 276.269531 121.0625 281.984375 119.378906 287.703125 117.457031 C 287.367188 117.457031 287.078125 117.457031 286.742188 117.507812 Z M 286.742188 117.507812 " fill-opacity="1" fill-rule="nonzero"/></g></g></svg>